<svg xmlns="http://www.w3.org/2000/svg" width="24.997" height="25" viewBox="0 0 24.997 25">
  <g id="down" transform="translate(-0.03)">
    <g id="Raggruppa_489" data-name="Raggruppa 489" transform="translate(0.03)">
      <g id="Raggruppa_488" data-name="Raggruppa 488" transform="translate(0)">
        <g id="Raggruppa_487" data-name="Raggruppa 487">
          <path id="Tracciato_728" data-name="Tracciato 728" d="M12.529,0a12.5,12.5,0,1,0,12.5,12.5A12.5,12.5,0,0,0,12.529,0Zm0,23.327A10.825,10.825,0,1,1,23.352,12.5,10.837,10.837,0,0,1,12.529,23.327Z" transform="translate(-0.03)" fill="#003479"/>
          <path id="Tracciato_729" data-name="Tracciato 729" d="M123.127,173l-4.841,4.843L113.444,173a.837.837,0,0,0-1.184,1.184l5.431,5.431a.824.824,0,0,0,.594.244.842.842,0,0,0,.594-.244l5.429-5.431A.837.837,0,1,0,123.127,173Z" transform="translate(-105.846 -163.237)" fill="#003479"/>
        </g>
      </g>
    </g>
  </g>
</svg>
